<?xml version="1.0" encoding="UTF-8" standalone="no"?>
<!DOCTYPE svg PUBLIC "-//W3C//DTD SVG 1.1//EN" "http://www.w3.org/Graphics/SVG/1.1/DTD/svg11.dtd">
<svg width="100%" height="100%" viewBox="0 0 1250 1250" version="1.1" xmlns="http://www.w3.org/2000/svg" xmlns:xlink="http://www.w3.org/1999/xlink" xml:space="preserve" xmlns:serif="http://www.serif.com/" style="fill-rule:evenodd;clip-rule:evenodd;stroke-linejoin:round;stroke-miterlimit:2;">
    <g transform="matrix(1,0,0,1,-1388.65,0)">
        <g id="On" transform="matrix(4.16667,0,0,4.16667,1388.65,0)">
            <rect x="0" y="0" width="300" height="300" style="fill:none;"/>
            <clipPath id="_clip1">
                <rect x="0" y="0" width="300" height="300"/>
            </clipPath>
            <g clip-path="url(#_clip1)">
                <g id="Livello-1" serif:id="Livello 1">
                    <g transform="matrix(1.07105,0,0,1.07105,298.408,-6.57252e-14)">
                        <path d="M0,280.098L-277.126,280.098C-277.947,280.098 -278.612,279.433 -278.612,278.612L-278.612,1.486C-278.612,0.665 -277.947,0 -277.126,0L0,0C0.821,0 1.486,0.665 1.486,1.486L1.486,278.612C1.486,279.433 0.821,280.098 0,280.098" style="fill:rgb(73,188,197);fill-rule:nonzero;"/>
                    </g>
                    <g transform="matrix(-1,0,0,1,299.827,188.162)">
                        <rect x="41.796" y="38.471" width="216.991" height="30.716" style="fill:rgb(55,79,107);"/>
                    </g>
                    <g transform="matrix(-1,0,0,1,301.22,4.18)">
                        <rect x="42.725" y="130.462" width="216.991" height="30.716" style="fill:rgb(247,245,244);"/>
                    </g>
                    <g transform="matrix(-1,0,0,1,299.827,-179.802)">
                        <rect x="41.796" y="222.453" width="216.991" height="30.716" style="fill:rgb(247,245,244);"/>
                    </g>
                </g>
            </g>
        </g>
    </g>
</svg>
