<?xml version="1.0" encoding="UTF-8" standalone="no"?>
<!DOCTYPE svg PUBLIC "-//W3C//DTD SVG 1.1//EN" "http://www.w3.org/Graphics/SVG/1.1/DTD/svg11.dtd">
<svg width="100%" height="100%" viewBox="0 0 1250 1251" version="1.1" xmlns="http://www.w3.org/2000/svg" xmlns:xlink="http://www.w3.org/1999/xlink" xml:space="preserve" xmlns:serif="http://www.serif.com/" style="fill-rule:evenodd;clip-rule:evenodd;stroke-linejoin:round;stroke-miterlimit:2;">
    <g transform="matrix(1,0,0,1,-2808.93,0)">
        <g id="Icon" transform="matrix(0.248784,0,0,0.248791,1928.59,645.002)">
            <rect x="3538.56" y="-2592.54" width="5024.44" height="5024.44" style="fill:rgb(17,17,17);"/>
            <clipPath id="_clip1">
                <rect x="3538.56" y="-2592.54" width="5024.44" height="5024.44"/>
            </clipPath>
            <g clip-path="url(#_clip1)">
                <g transform="matrix(2.42709,0,0,2.42709,-8635.01,1675.16)">
                    <g transform="matrix(7.3908,0,0,7.39059,7074.87,-1758.36)">
                        <path d="M0,280.098L-277.126,280.098C-277.947,280.098 -278.612,279.433 -278.612,278.612L-278.612,1.486C-278.612,0.665 -277.947,0 -277.126,0L0,0C0.821,0 1.486,0.665 1.486,1.486L1.486,278.612C1.486,279.433 0.821,280.098 0,280.098" style="fill:rgb(247,245,244);fill-rule:nonzero;"/>
                    </g>
                    <g transform="matrix(-6.9005,0,0,6.9003,7084.66,-459.985)">
                        <rect x="41.796" y="38.471" width="216.991" height="30.716" style="fill:rgb(55,79,107);"/>
                    </g>
                    <g transform="matrix(-6.9005,0,0,6.9003,7094.28,-1729.52)">
                        <rect x="42.725" y="130.462" width="216.991" height="30.716" style="fill:rgb(73,188,197);"/>
                    </g>
                    <g transform="matrix(-6.9005,0,0,6.9003,7084.66,-2999.05)">
                        <rect x="41.796" y="222.453" width="216.991" height="30.716" style="fill:rgb(234,80,132);"/>
                    </g>
                </g>
            </g>
        </g>
    </g>
</svg>
